<?xml version="1.0" encoding="UTF-8"?>
<svg xmlns="http://www.w3.org/2000/svg" width="1363" height="358" viewBox="0 0 1363 358" fill="none">
  <path d="M0 88H138.89V270.28H114.24V108.75H24.66V270.28H0V88ZM162.69 108.75V88H316.84V108.75H252.16V270.28H227.38V108.75H162.69ZM435.11 203.01L401.54 112.29L368.1 203.01H435.11ZM318.06 270.28L387.63 88H415.58L485.02 270.28H459.39L442.79 223.52H360.66L344.06 270.28H318.06ZM559.6 172.97L502.84 88H529.33L574.61 155.76L620.13 88H646.62L588.03 175.54L650.52 270.28H624.04L572.78 192.75L521.15 270.28H494.54L559.6 172.97ZM787.58 88H820.78V270.28H796.86V117.79L716.06 270.28H682.86V88H706.79V240.49L787.58 88Z" fill="#2B2E34"></path>
  <path fill-rule="evenodd" clip-rule="evenodd" d="M1009.4 284.91C1009.4 281 1012.79 277.93 1016.7 277.93H1037.13C1045.39 277.93 1051.95 283.43 1051.95 291.9C1051.95 297.41 1049.73 301.11 1044.65 303.44V303.65C1051.42 304.6 1056.71 310.21 1056.71 317.09C1056.71 328.2 1049.2 334.24 1038.3 334.24H1016.7C1012.79 334.24 1009.4 331.06 1009.4 327.14V284.91ZM1024.43 300.26H1030.57C1034.49 300.26 1036.92 297.93 1036.92 294.02C1036.92 290.31 1034.07 288.41 1030.57 288.41H1024.43V300.26ZM1024.43 323.76H1033.75C1037.98 323.76 1041.16 321.32 1041.16 316.88C1041.16 313.17 1038.3 310.63 1032.79 310.63H1024.43V323.76ZM1080.53 262.79C1080.53 267.55 1076.72 271.58 1071.96 271.58C1067.41 271.58 1063.39 267.45 1063.39 262.79C1063.39 258.45 1067.41 254.43 1071.96 254.43C1076.51 254.43 1080.53 258.35 1080.53 262.79ZM1064.34 285.76C1064.34 280.68 1067.52 277.3 1071.96 277.3C1076.4 277.3 1079.58 280.68 1079.58 285.76V326.4C1079.58 331.49 1076.4 334.87 1071.96 334.87C1067.52 334.87 1064.34 331.49 1064.34 326.4V285.76ZM1139.59 350.32C1135.15 350.32 1131.97 346.94 1131.97 341.86V334.24H1099.37V341.86C1099.37 346.94 1096.2 350.32 1091.75 350.32C1087.31 350.32 1084.13 346.94 1084.13 341.86V329.37C1084.13 324.29 1087.31 320.9 1091.75 320.9H1092.6C1095.46 310.95 1096.41 299.52 1096.41 286.4C1096.41 280.89 1099.58 277.93 1104.03 277.93H1131.13C1135.57 277.93 1138.74 281.31 1138.74 286.4V320.9H1139.59C1144.04 320.9 1147.21 324.29 1147.21 329.37V341.86C1147.21 346.94 1144.04 350.32 1139.59 350.32ZM1124.35 290.2H1111.33C1111.02 301.85 1109.85 312.75 1107.42 321.75H1124.35V290.2ZM1171.75 301.42H1179.48V285.76C1179.48 280.68 1182.66 277.3 1187.1 277.3C1191.55 277.3 1194.72 280.68 1194.72 285.76V326.4C1194.72 331.49 1191.55 334.87 1187.1 334.87C1182.66 334.87 1179.48 331.49 1179.48 326.4V314.76H1169.74C1157.36 314.76 1147.73 307.03 1147.73 295.71V285.76C1147.73 280.68 1150.91 277.3 1155.35 277.3C1159.79 277.3 1162.97 280.68 1162.97 285.76V295.07C1162.97 299.31 1166.57 301.42 1171.75 301.42ZM1199.49 287.77C1199.07 286.61 1198.75 285.44 1198.75 283.85C1198.75 280.05 1202.77 277.3 1205.94 277.3C1209.65 277.3 1212.29 279.31 1213.56 282.69L1224.04 311.37L1235.26 282.69C1236.53 279.31 1239.18 277.3 1242.88 277.3C1246.06 277.3 1250.08 280.05 1250.08 283.85C1250.08 285.44 1249.87 286.61 1249.34 287.77L1223.83 351.28C1222.56 354.45 1220.23 357.31 1216.63 357.31C1211.45 357.31 1208.7 354.03 1208.7 350.75C1208.7 349.26 1209.12 347.68 1209.65 346.3L1216.32 329.79L1199.49 287.77ZM1296.76 334.87C1292.31 334.87 1289.13 331.48 1289.13 326.4V303.96H1288.93L1268.07 331.38C1266.38 333.6 1264.47 334.87 1261.83 334.87C1257.38 334.87 1254.21 331.48 1254.21 326.4V285.76C1254.21 280.68 1257.38 277.3 1261.83 277.3C1266.28 277.3 1269.45 280.68 1269.45 285.76V307.77H1269.66L1289.13 281.95C1291.26 279.2 1293.9 277.3 1296.76 277.3C1301.21 277.3 1304.38 280.68 1304.38 285.76V326.4C1304.38 331.48 1301.21 334.87 1296.76 334.87ZM1268.5 257.6C1275.06 257.6 1273.58 264.8 1280.14 264.8C1285.86 264.8 1284.91 257.6 1291.78 257.6C1294.53 257.6 1296.55 261.21 1296.55 263.95C1296.55 271.58 1286.49 274.96 1280.14 274.96C1273.68 274.96 1263.74 271.89 1263.74 263.95C1263.74 260.99 1265 257.6 1268.5 257.6ZM1072.71 210.27C1053.2 210.27 1021.72 185.68 999.18 161.31C985.47 146.48 973.89 130.63 965.69 115.48C955.91 97.41 950.95 80.56 950.95 65.41C950.95 47.97 957.74 31.59 970.07 19.26C982.39 6.92999 998.78 0.149992 1016.22 0.149992C1033.65 0.149992 1050.04 6.92999 1062.36 19.26C1066.43 23.33 1069.89 27.83 1072.71 32.67C1075.52 27.83 1078.99 23.33 1083.05 19.26C1095.38 6.92999 1111.77 0.149992 1129.2 0.149992C1146.64 0.149992 1163.02 6.92999 1175.35 19.26C1187.68 31.59 1194.46 47.97 1194.46 65.41C1194.46 80.56 1189.51 97.41 1179.73 115.48C1171.53 130.63 1159.94 146.48 1146.23 161.31C1123.69 185.68 1092.22 210.27 1072.71 210.27ZM1016.22 17.68C989.9 17.68 968.49 39.09 968.49 65.41C968.49 88.5 984.78 119.9 1012.06 149.4C1023.58 161.86 1036.38 173.16 1048.1 181.22C1060.44 189.7 1068.9 192.73 1072.71 192.73C1076.51 192.73 1084.97 189.7 1097.31 181.22C1109.03 173.16 1121.83 161.86 1133.36 149.4C1160.64 119.9 1176.93 88.5 1176.93 65.41C1176.93 39.09 1155.52 17.68 1129.2 17.68C1102.89 17.68 1081.48 39.09 1081.48 65.41C1081.48 70.25 1077.55 74.17 1072.71 74.17C1067.86 74.17 1063.94 70.25 1063.94 65.41C1063.94 39.09 1042.53 17.68 1016.22 17.68ZM1241.96 138.05C1239.71 138.05 1237.47 137.19 1235.76 135.48C1232.33 132.05 1232.33 126.5 1235.76 123.07C1240.53 118.3 1243.16 111.95 1243.16 105.2C1243.16 98.45 1240.53 92.11 1235.76 87.33C1232.33 83.9 1232.33 78.35 1235.76 74.93C1239.18 71.5 1244.73 71.5 1248.16 74.93C1256.24 83.02 1260.7 93.77 1260.7 105.2C1260.7 116.64 1256.24 127.39 1248.16 135.48C1246.45 137.19 1244.2 138.05 1241.96 138.05ZM1266.03 162.12C1263.78 162.12 1261.54 161.26 1259.83 159.55C1256.4 156.13 1256.4 150.58 1259.83 147.15C1271.03 135.95 1277.2 121.05 1277.2 105.21C1277.2 89.36 1271.03 74.46 1259.83 63.26C1256.4 59.84 1256.4 54.28 1259.83 50.86C1263.26 47.44 1268.81 47.44 1272.23 50.86C1279.29 57.91 1284.83 66.13 1288.7 75.29C1292.71 84.77 1294.74 94.84 1294.74 105.21C1294.74 115.58 1292.71 125.64 1288.7 135.13C1284.83 144.28 1279.29 152.49 1272.23 159.55C1270.52 161.26 1268.28 162.12 1266.03 162.12ZM1290.1 186.19C1287.86 186.19 1285.62 185.34 1283.9 183.63C1280.48 180.2 1280.48 174.65 1283.9 171.22C1301.54 153.59 1311.25 130.14 1311.25 105.2C1311.25 80.26 1301.54 56.82 1283.9 39.19C1280.48 35.76 1280.48 30.21 1283.9 26.78C1287.33 23.36 1292.88 23.36 1296.3 26.78C1306.49 36.96 1314.48 48.83 1320.07 62.03C1325.85 75.71 1328.79 90.24 1328.79 105.2C1328.79 120.17 1325.85 134.7 1320.07 148.38C1314.48 161.58 1306.49 173.44 1296.3 183.63C1294.59 185.34 1292.35 186.19 1290.1 186.19ZM1314.18 210.27C1311.93 210.27 1309.69 209.41 1307.98 207.7C1304.55 204.27 1304.55 198.72 1307.98 195.3C1332.04 171.24 1345.29 139.24 1345.29 105.21C1345.29 71.17 1332.04 39.18 1307.98 15.12C1304.55 11.69 1304.55 6.13999 1307.98 2.70999C1311.4 -0.710011 1316.95 -0.710011 1320.38 2.70999C1333.68 16.02 1344.14 31.52 1351.44 48.78C1359 66.66 1362.83 85.64 1362.83 105.21C1362.83 124.77 1359 143.75 1351.44 161.63C1344.14 178.89 1333.68 194.39 1320.38 207.7C1318.66 209.41 1316.42 210.27 1314.18 210.27Z" fill="#2C2E35"></path>
</svg>
